<?xml version="1.0" encoding="UTF-8" standalone="no"?>
<svg
   height="1024"
   width="1024"
   version="1.1"
   id="svg4"
   sodipodi:docname="icons-vector.svg"
   inkscape:version="1.1.2 (0a00cf5339, 2022-02-04)"
   inkscape:export-filename="/src/telnet-demo/src/images/icons-192.png"
   inkscape:export-xdpi="18"
   inkscape:export-ydpi="18"
   xmlns:inkscape="http://www.inkscape.org/namespaces/inkscape"
   xmlns:sodipodi="http://sodipodi.sourceforge.net/DTD/sodipodi-0.dtd"
   xmlns="http://www.w3.org/2000/svg"
   xmlns:svg="http://www.w3.org/2000/svg">
  <defs
     id="defs8" />
  <sodipodi:namedview
     id="namedview6"
     pagecolor="#ffffff"
     bordercolor="#666666"
     borderopacity="1.0"
     inkscape:pageshadow="2"
     inkscape:pageopacity="0.0"
     inkscape:pagecheckerboard="0"
     showgrid="false"
     width="1024px"
     inkscape:zoom="0.56835938"
     inkscape:cx="342.21306"
     inkscape:cy="457.45704"
     inkscape:window-width="2214"
     inkscape:window-height="1129"
     inkscape:window-x="0"
     inkscape:window-y="0"
     inkscape:window-maximized="1"
     inkscape:current-layer="svg4" />
  <circle
     style="fill:#ad7fa8"
     id="path847"
     cx="512"
     cy="512"
     r="438.10309" />
  <path
     d="m 257.58419,751.45018 q -17.95876,0 -31.42783,-13.46908 -13.46908,-13.46908 -13.46908,-31.42783 V 317.44673 q 0,-17.95875 13.46908,-31.42783 13.46907,-13.46908 31.42783,-13.46908 h 508.83162 q 17.95876,0 31.42783,13.46908 13.46908,13.46908 13.46908,31.42783 v 389.10654 q 0,17.95875 -13.46908,31.42783 -13.46907,13.46908 -31.42783,13.46908 z m 0,-44.89691 h 508.83162 q 0,0 0,0 0,0 0,0 V 380.3024 H 257.58419 v 326.25087 q 0,0 0,0 0,0 0,0 z M 519.48281,655.67011 V 610.7732 h 164.62201 v 44.89691 z m -142.17353,-2.99313 -31.42784,-31.42784 77.07303,-77.82131 -77.82131,-77.8213 32.17612,-31.42784 109.24914,109.24914 z"
     id="path2"
     style="stroke-width:14.9657" />
</svg>
